<?xml version="1.0" encoding="utf-8"?>
<svg id="master-artboard" xmlns="http://www.w3.org/2000/svg" viewBox="0 0 400 147.8" width="400px" height="147.8000030517578px" xmlns:xlink="http://www.w3.org/1999/xlink"><defs><path id="text-path-0" d="M 6.412824630737305 102.99446105957031 A 100 -1 0 0 0 122.13391876220703 102.99446105957031 A 100 -1 0 0 0 6.412824630737305 102.99446105957031 Z" style="fill: none; stroke: red; stroke-width: 2;"/><style id="ee-google-fonts">@import url(https://fonts.googleapis.com/css?family=Kadwa:400,700);</style></defs><rect id="ee-background" x="0" y="0" width="400" height="147.8000030517578" style="fill: white; fill-opacity: 0; pointer-events: none;"/><g transform="matrix(1.3146797061516555, 0, 0, 1.3146797061516555, -786.8573028712178, -52.625561147248376)"><g id="g-1" transform="matrix(1, 0, 0, 1, 0, 0)">
	<g id="g-2">
		<path class="st0" d="M652,46c27.6,0,50,22.4,50,50s-22.4,50-50,50s-50-22.4-50-50S624.4,46,652,46z" style="fill: rgb(41, 7, 179);"/>
	</g>
</g></g><text class="single-line-text" style="font-size: 69.4px; font-family: null; fill: rgb(240, 255, 181); white-space: pre; color: rgb(14, 51, 12); text-anchor: middle;" transform="matrix(0.9940450906456618, 0, 0, 0.9940450906456618, 7.616051629641942, -1.749706490581639)"><textPath startOffset="25%" xlink:href="#text-path-0">APJ</textPath></text><path d="M 281.1590270996094 99.2300033569336 L 284.1090393066406 98.63999938964844 L 284.1090393066406 82.70999908447266 L 280.279052734375 82.70999908447266 L 279.5490417480469 85.66000366210938 L 277.6190490722656 85.66000366210938 L 277.6190490722656 80.3499984741211 L 293.69903564453125 80.3499984741211 L 293.69903564453125 85.66000366210938 L 291.7890319824219 85.66000366210938 L 291.0390319824219 82.70999908447266 L 287.20904541015625 82.70999908447266 L 287.20904541015625 98.63999938964844 L 290.1590270996094 99.2300033569336 L 290.1590270996094 101 L 281.1590270996094 101 L 281.1590270996094 99.2300033569336 ZM 299.7082824707031 93.62999725341797 C 299.7082824707031 95.24333190917969 300.10162353515625 96.52999877929688 300.8882751464844 97.48999786376953 C 301.6749572753906 98.4566650390625 302.7049560546875 98.94000244140625 303.978271484375 98.94000244140625 C 304.8449401855469 98.94000244140625 305.6482849121094 98.81999969482422 306.3882751464844 98.58000183105469 C 307.1282958984375 98.33999633789062 307.73828125 98.08000183105469 308.2182922363281 97.80000305175781 C 308.6982727050781 97.51333618164062 308.93829345703125 97.3499984741211 308.93829345703125 97.30999755859375 L 309.9682922363281 98.83999633789062 C 309.9682922363281 98.87999725341797 309.651611328125 99.11666870117188 309.0182800292969 99.55000305175781 C 308.3782958984375 99.98999786376953 307.59161376953125 100.38999938964844 306.6582946777344 100.75 C 305.7182922363281 101.11000061035156 304.7249450683594 101.29000091552734 303.67828369140625 101.29000091552734 C 301.3582763671875 101.29000091552734 299.5982971191406 100.58999633789062 298.3982849121094 99.19000244140625 C 297.2049560546875 97.78333282470703 296.6082763671875 95.83333587646484 296.6082763671875 93.33999633789062 C 296.6082763671875 91.78666687011719 296.9149475097656 90.37999725341797 297.5282897949219 89.12000274658203 C 298.13494873046875 87.86000061035156 298.98828125 86.87000274658203 300.0882873535156 86.1500015258789 C 301.18829345703125 85.43000030517578 302.43829345703125 85.06999969482422 303.8382873535156 85.06999969482422 C 307.9649658203125 85.06999969482422 310.0282897949219 87.37999725341797 310.0282897949219 92 C 310.0282897949219 92.3133316040039 310.0082702636719 92.62999725341797 309.9682922363281 92.94999694824219 C 309.9349365234375 93.2699966430664 309.9082946777344 93.47666931152344 309.8882751464844 93.56999969482422 L 299.7082824707031 93.62999725341797 M 306.9082946777344 91.41000366210938 C 306.9082946777344 90.20999908447266 306.651611328125 89.23666381835938 306.1382751464844 88.48999786376953 C 305.62493896484375 87.75 304.8049621582031 87.37999725341797 303.67828369140625 87.37999725341797 C 302.53826904296875 87.37999725341797 301.63494873046875 87.76333618164062 300.9682922363281 88.52999877929688 C 300.3016052246094 89.29666900634766 299.91827392578125 90.25666809082031 299.81829833984375 91.41000366210938 L 306.9082946777344 91.41000366210938 ZM 324.42333984375 87.72000122070312 C 324.2900085449219 87.68000030517578 323.9666748046875 87.62333679199219 323.4533386230469 87.55000305175781 C 322.9466552734375 87.47000122070312 322.38665771484375 87.43000030517578 321.7733459472656 87.43000030517578 C 320.3599853515625 87.43000030517578 319.2699890136719 87.88666534423828 318.5033264160156 88.80000305175781 C 317.7366638183594 89.71333312988281 317.35333251953125 91.07666778564453 317.35333251953125 92.88999938964844 C 317.35333251953125 94.8566665649414 317.75665283203125 96.3566665649414 318.5633239746094 97.38999938964844 C 319.3699951171875 98.42333221435547 320.4866638183594 98.94000244140625 321.913330078125 98.94000244140625 C 322.739990234375 98.94000244140625 323.49334716796875 98.8066635131836 324.17333984375 98.54000091552734 C 324.8599853515625 98.26667022705078 325.4166564941406 97.9800033569336 325.84332275390625 97.68000030517578 C 326.27667236328125 97.37999725341797 326.49334716796875 97.20999908447266 326.49334716796875 97.16999816894531 L 327.5333251953125 98.94000244140625 C 327.5333251953125 98.9800033569336 327.2266540527344 99.2066650390625 326.61334228515625 99.62000274658203 C 326.00665283203125 100.03333282470703 325.2633361816406 100.413330078125 324.3833312988281 100.76000213623047 C 323.5033264160156 101.11333465576172 322.5833435058594 101.29000091552734 321.6233215332031 101.29000091552734 C 319.22332763671875 101.29000091552734 317.39666748046875 100.58000183105469 316.1433410644531 99.16000366210938 C 314.8833312988281 97.73999786376953 314.2533264160156 95.74666595458984 314.2533264160156 93.18000030517578 C 314.2533264160156 91.6066665649414 314.5666809082031 90.2066650390625 315.1933288574219 88.97999572753906 C 315.82666015625 87.74666595458984 316.7200012207031 86.78666687011719 317.8733215332031 86.0999984741211 C 319.0199890136719 85.413330078125 320.3666687011719 85.06999969482422 321.913330078125 85.06999969482422 C 322.70001220703125 85.06999969482422 323.4700012207031 85.16000366210938 324.22332763671875 85.33999633789062 C 324.9700012207031 85.52000427246094 325.5799865722656 85.70333099365234 326.0533447265625 85.88999938964844 C 326.5199890136719 86.07666778564453 326.8166809082031 86.19667053222656 326.9433288574219 86.25 L 326.7833251953125 90.22999572753906 L 324.86334228515625 90.22999572753906 L 324.42333984375 87.72000122070312 ZM 335.7423095703125 87.19999694824219 C 336.3756408691406 86.66666412353516 337.1556396484375 86.18000030517578 338.0823059082031 85.73999786376953 C 339.0023193359375 85.2933349609375 339.94232177734375 85.06999969482422 340.9023132324219 85.06999969482422 C 342.47564697265625 85.06999969482422 343.6556396484375 85.54000091552734 344.44232177734375 86.47999572753906 C 345.2289733886719 87.413330078125 345.622314453125 88.71666717529297 345.622314453125 90.38999938964844 L 345.622314453125 98.63999938964844 L 347.8423156738281 99.37000274658203 L 347.8423156738281 101 L 340.7523193359375 101 L 340.7523193359375 99.37000274658203 L 342.67230224609375 98.66999816894531 L 342.67230224609375 90.66999816894531 C 342.67230224609375 89.61000061035156 342.47564697265625 88.83000183105469 342.0823059082031 88.33000183105469 C 341.68896484375 87.83000183105469 341.0323181152344 87.58000183105469 340.1123046875 87.58000183105469 C 339.3589782714844 87.58000183105469 338.6589660644531 87.75666809082031 338.0122985839844 88.11000061035156 C 337.3656311035156 88.46333312988281 336.8256530761719 88.84666442871094 336.3923034667969 89.26000213623047 C 335.958984375 89.67333221435547 335.7423095703125 89.9000015258789 335.7423095703125 89.94000244140625 L 335.7423095703125 98.63999938964844 L 337.66229248046875 99.37000274658203 L 337.66229248046875 101 L 330.2823181152344 101 L 330.2823181152344 99.37000274658203 L 332.79229736328125 98.63999938964844 L 332.79229736328125 80.6500015258789 L 330.2823181152344 80.05999755859375 L 330.2823181152344 78.43000030517578 L 335.7423095703125 78.29000091552734 L 335.7423095703125 87.19999694824219 ZM 359.4517517089844 80.51000213623047 L 362.4017333984375 80.3499984741211 L 368.9517517089844 98.66999816894531 L 371.4017333984375 99.2300033569336 L 371.4017333984375 101 L 362.85174560546875 101 L 362.85174560546875 99.2300033569336 L 365.5817565917969 98.66999816894531 L 364.46173095703125 95.4000015258789 L 356.8017578125 95.4000015258789 L 355.6517333984375 98.66999816894531 L 358.4117431640625 99.2300033569336 L 358.4117431640625 101 L 350.3017578125 101 L 350.3017578125 99.2300033569336 L 352.72174072265625 98.66999816894531 L 359.4517517089844 80.51000213623047 M 360.6917419433594 84.16999816894531 L 357.59173583984375 93.04000091552734 L 363.6717529296875 93.04000091552734 L 360.6917419433594 84.16999816894531 ZM 375.786865234375 82.70999908447266 L 373.27685546875 82.12000274658203 L 373.27685546875 80.51000213623047 L 378.8768615722656 80.3499984741211 L 381.97686767578125 80.3499984741211 C 384.1568603515625 80.3499984741211 385.8302001953125 80.8933334350586 386.9968566894531 81.97999572753906 C 388.1701965332031 83.05999755859375 388.7568664550781 84.53333282470703 388.7568664550781 86.4000015258789 C 388.7568664550781 88.66666412353516 388.06353759765625 90.38999938964844 386.6768493652344 91.56999969482422 C 385.2901916503906 92.75 383.3302001953125 93.33999633789062 380.796875 93.33999633789062 L 378.8768615722656 93.33999633789062 L 378.8768615722656 98.63999938964844 L 381.3868713378906 99.2300033569336 L 381.3868713378906 101 L 373.27685546875 101 L 373.27685546875 99.2300033569336 L 375.786865234375 98.63999938964844 L 375.786865234375 82.70999908447266 M 380.796875 90.97999572753906 C 382.4101867675781 90.97999572753906 383.62353515625 90.62333679199219 384.4368591308594 89.91000366210938 C 385.2568664550781 89.20333099365234 385.6668701171875 88.18000030517578 385.6668701171875 86.83999633789062 C 385.6668701171875 85.62666320800781 385.3302001953125 84.63333129882812 384.6568603515625 83.86000061035156 C 383.9902038574219 83.09333801269531 383.046875 82.70999908447266 381.8268737792969 82.70999908447266 L 378.8768615722656 82.70999908447266 L 378.8768615722656 90.97999572753906 L 380.796875 90.97999572753906 ZM 397.8325500488281 82.70999908447266 L 397.8325500488281 99.68000030517578 C 397.8325500488281 101.45999908447266 397.33587646484375 102.86333465576172 396.3425598144531 103.88999938964844 C 395.3492126464844 104.91000366210938 393.9792175292969 105.41999816894531 392.2325439453125 105.41999816894531 C 391.9125671386719 105.41999816894531 391.5458984375 105.4000015258789 391.132568359375 105.36000061035156 C 390.7192077636719 105.32666778564453 390.4559020996094 105.30000305175781 390.3425598144531 105.27999877929688 L 390.6025695800781 103.05999755859375 L 392.0825500488281 103.05999755859375 C 393.0025634765625 103.05999755859375 393.6759033203125 102.82333374023438 394.1025695800781 102.3499984741211 C 394.5225524902344 101.88333129882812 394.7325439453125 101.19000244140625 394.7325439453125 100.2699966430664 L 394.7325439453125 82.70999908447266 L 392.2325439453125 82.12000274658203 L 392.2325439453125 80.51000213623047 L 400.3325500488281 80.3499984741211 L 400.3325500488281 82.12000274658203 L 397.8325500488281 82.70999908447266 ZM 296.0490417480469 138.67999267578125 C 296.0490417480469 138.72000122070312 295.682373046875 138.88999938964844 294.94903564453125 139.1899871826172 C 294.2156982421875 139.4966583251953 293.28570556640625 139.77999877929688 292.1590270996094 140.0399932861328 C 291.0390319824219 140.30665588378906 289.82904052734375 140.4399871826172 288.529052734375 140.4399871826172 C 285.5490417480469 140.4399871826172 283.23236083984375 139.56666564941406 281.57904052734375 137.8199920654297 C 279.92572021484375 136.07333374023438 279.0990295410156 133.55665588378906 279.0990295410156 130.26998901367188 C 279.0990295410156 128.0366668701172 279.50238037109375 126.08666229248047 280.3090515136719 124.41999816894531 C 281.1156921386719 122.75332641601562 282.2623596191406 121.46665954589844 283.7490539550781 120.55999755859375 C 285.2290344238281 119.65999603271484 286.9723815917969 119.20999145507812 288.9790344238281 119.20999145507812 C 289.93902587890625 119.20999145507812 290.9123840332031 119.31999206542969 291.8990478515625 119.53999328613281 C 292.8790283203125 119.75332641601562 293.7456970214844 119.99333190917969 294.4990539550781 120.25999450683594 C 295.2456970214844 120.5199966430664 295.6190490722656 120.65999603271484 295.6190490722656 120.67999267578125 L 295.4790344238281 125.54999542236328 L 293.5490417480469 125.54999542236328 L 292.6690368652344 122.30999755859375 C 292.56903076171875 122.2699966430664 292.33905029296875 122.20332336425781 291.9790344238281 122.10999298095703 C 291.61236572265625 122.02333068847656 291.13238525390625 121.93666076660156 290.5390319824219 121.84999084472656 C 289.9523620605469 121.7633285522461 289.3323669433594 121.7199935913086 288.6790466308594 121.7199935913086 C 286.6923828125 121.7199935913086 285.1623840332031 122.43999481201172 284.08905029296875 123.87998962402344 C 283.0223693847656 125.32666015625 282.4890441894531 127.40999603271484 282.4890441894531 130.12998962402344 C 282.4890441894531 132.7033233642578 283.0723876953125 134.64666748046875 284.2390441894531 135.95999145507812 C 285.4123840332031 137.27333068847656 286.99237060546875 137.92999267578125 288.9790344238281 137.92999267578125 C 289.585693359375 137.92999267578125 290.1923828125 137.8766632080078 290.7990417480469 137.76998901367188 C 291.4123840332031 137.6699981689453 291.92572021484375 137.55999755859375 292.33905029296875 137.4399871826172 C 292.7456970214844 137.3199920654297 293.00238037109375 137.239990234375 293.1090393066406 137.1999969482422 L 293.1090393066406 132.36000061035156 L 290.6090393066406 131.76998901367188 L 290.6090393066406 130.1599884033203 L 298.26904296875 130 L 298.26904296875 131.76998901367188 L 296.0490417480469 132.36000061035156 L 296.0490417480469 138.67999267578125 ZM 319.320556640625 140.00999450683594 L 314.4605712890625 140.14999389648438 L 314.1705627441406 138.08999633789062 C 313.5838928222656 138.6166534423828 312.7872314453125 139.13999938964844 311.78057861328125 139.6599884033203 C 310.7672424316406 140.17999267578125 309.743896484375 140.4399871826172 308.7105712890625 140.4399871826172 C 307.1372375488281 140.4399871826172 305.9572448730469 139.97999572753906 305.1705627441406 139.05999755859375 C 304.3839111328125 138.13333129882812 303.9905700683594 136.83665466308594 303.9905700683594 135.1699981689453 L 303.9905700683594 126.8699951171875 L 301.4805603027344 126.27999114990234 L 301.4805603027344 124.66999816894531 L 306.9405517578125 124.52999114990234 L 306.9405517578125 134.86000061035156 C 306.9405517578125 135.9066619873047 307.147216796875 136.67999267578125 307.5605773925781 137.17999267578125 C 307.9739074707031 137.67999267578125 308.65057373046875 137.92999267578125 309.590576171875 137.92999267578125 C 310.33721923828125 137.92999267578125 311.0238952636719 137.75999450683594 311.65057373046875 137.4199981689453 C 312.2839050292969 137.07998657226562 312.8105773925781 136.7033233642578 313.2305603027344 136.2899932861328 C 313.6572265625 135.8766632080078 313.8705749511719 135.64999389648438 313.8705749511719 135.61000061035156 L 313.8705749511719 126.8699951171875 L 311.3605651855469 126.27999114990234 L 311.3605651855469 124.66999816894531 L 316.820556640625 124.52999114990234 L 316.820556640625 137.7899932861328 L 319.320556640625 138.37998962402344 L 319.320556640625 140.00999450683594 ZM 327.80999755859375 126.66999816894531 C 328.36334228515625 126.06332397460938 329.0233459472656 125.50332641601562 329.7900085449219 124.989990234375 C 330.54998779296875 124.4766616821289 331.3766784667969 124.2199935913086 332.2699890136719 124.2199935913086 C 332.7033386230469 124.2199935913086 333.11334228515625 124.25332641601562 333.5 124.31999206542969 C 333.8933410644531 124.38665771484375 334.21331787109375 124.45665740966797 334.4599914550781 124.52999114990234 C 334.71331787109375 124.60332489013672 334.8666687011719 124.64999389648438 334.9200134277344 124.66999816894531 L 334.7799987792969 128.9499969482422 L 332.8500061035156 128.9499969482422 L 332.4200134277344 126.72999572753906 C 331.44000244140625 126.72999572753906 330.59332275390625 126.96332550048828 329.8800048828125 127.42999267578125 C 329.17333984375 127.90332794189453 328.59332275390625 128.43666076660156 328.1400146484375 129.02999877929688 L 328.1400146484375 137.7899932861328 L 331.0899963378906 138.51998901367188 L 331.0899963378906 140.14999389648438 L 322.67999267578125 140.14999389648438 L 322.67999267578125 138.51998901367188 L 325.19000244140625 137.7899932861328 L 325.19000244140625 126.8699951171875 L 322.67999267578125 126.27999114990234 L 322.67999267578125 124.66999816894531 L 327.54998779296875 124.52999114990234 L 327.80999755859375 126.66999816894531 ZM 355.0771484375 140.00999450683594 L 350.2171630859375 140.14999389648438 L 349.9271545410156 138.08999633789062 C 349.3404846191406 138.6166534423828 348.5438232421875 139.13999938964844 347.53717041015625 139.6599884033203 C 346.5238342285156 140.17999267578125 345.50048828125 140.4399871826172 344.4671630859375 140.4399871826172 C 342.8938293457031 140.4399871826172 341.7138366699219 139.97999572753906 340.9271545410156 139.05999755859375 C 340.1405029296875 138.13333129882812 339.7471618652344 136.83665466308594 339.7471618652344 135.1699981689453 L 339.7471618652344 126.8699951171875 L 337.2371520996094 126.27999114990234 L 337.2371520996094 124.66999816894531 L 342.6971435546875 124.52999114990234 L 342.6971435546875 134.86000061035156 C 342.6971435546875 135.9066619873047 342.90380859375 136.67999267578125 343.3171691894531 137.17999267578125 C 343.7304992675781 137.67999267578125 344.40716552734375 137.92999267578125 345.34716796875 137.92999267578125 C 346.09381103515625 137.92999267578125 346.7804870605469 137.75999450683594 347.40716552734375 137.4199981689453 C 348.0404968261719 137.07998657226562 348.5671691894531 136.7033233642578 348.9871520996094 136.2899932861328 C 349.413818359375 135.8766632080078 349.6271667480469 135.64999389648438 349.6271667480469 135.61000061035156 L 349.6271667480469 126.8699951171875 L 347.1171569824219 126.27999114990234 L 347.1171569824219 124.66999816894531 L 352.5771484375 124.52999114990234 L 352.5771484375 137.7899932861328 L 355.0771484375 138.37998962402344 L 355.0771484375 140.00999450683594 ZM 368.1827392578125 126.69999694824219 L 366.85272216796875 126.27999114990234 L 366.85272216796875 124.66999816894531 L 373.3327331542969 124.52999114990234 L 373.3327331542969 126.27999114990234 L 371.24273681640625 126.6399917602539 L 371.2127380371094 126.6399917602539 L 368.1827392578125 131.14999389648438 L 371.98272705078125 137.7899932861328 L 372.0127258300781 137.7899932861328 L 374.22271728515625 138.51998901367188 L 374.22271728515625 140.14999389648438 L 370.24273681640625 140.14999389648438 L 366.0227355957031 132.62998962402344 L 363.4527282714844 132.62998962402344 L 363.4527282714844 137.7899932861328 L 365.3727111816406 138.51998901367188 L 365.3727111816406 140.14999389648438 L 357.99273681640625 140.14999389648438 L 357.99273681640625 138.51998901367188 L 360.5027160644531 137.7899932861328 L 360.5027160644531 119.79999542236328 L 357.99273681640625 119.20999145507812 L 357.99273681640625 117.57999420166016 L 363.4527282714844 117.43999481201172 L 363.4527282714844 130.4199981689453 L 365.9627380371094 130.4199981689453 L 368.1827392578125 126.69999694824219 ZM 394.2276916503906 140.00999450683594 L 389.3677062988281 140.14999389648438 L 389.07769775390625 138.08999633789062 C 388.49102783203125 138.6166534423828 387.6943664550781 139.13999938964844 386.6877136230469 139.6599884033203 C 385.67437744140625 140.17999267578125 384.6510314941406 140.4399871826172 383.6177062988281 140.4399871826172 C 382.04437255859375 140.4399871826172 380.8643798828125 139.97999572753906 380.07769775390625 139.05999755859375 C 379.2910461425781 138.13333129882812 378.897705078125 136.83665466308594 378.897705078125 135.1699981689453 L 378.897705078125 126.8699951171875 L 376.3876953125 126.27999114990234 L 376.3876953125 124.66999816894531 L 381.8476867675781 124.52999114990234 L 381.8476867675781 134.86000061035156 C 381.8476867675781 135.9066619873047 382.0543518066406 136.67999267578125 382.46771240234375 137.17999267578125 C 382.88104248046875 137.67999267578125 383.5577087402344 137.92999267578125 384.4977111816406 137.92999267578125 C 385.2443542480469 137.92999267578125 385.9310302734375 137.75999450683594 386.5577087402344 137.4199981689453 C 387.1910400390625 137.07998657226562 387.71771240234375 136.7033233642578 388.1376953125 136.2899932861328 C 388.5643615722656 135.8766632080078 388.7777099609375 135.64999389648438 388.7777099609375 135.61000061035156 L 388.7777099609375 126.8699951171875 L 386.2677001953125 126.27999114990234 L 386.2677001953125 124.66999816894531 L 391.7276916503906 124.52999114990234 L 391.7276916503906 137.7899932861328 L 394.2276916503906 138.37998962402344 L 394.2276916503906 140.00999450683594 ZM 405.30712890625 140.14999389648438 L 397.13714599609375 140.14999389648438 L 397.13714599609375 138.51998901367188 L 399.6471252441406 137.7899932861328 L 399.6471252441406 119.79999542236328 L 397.13714599609375 119.20999145507812 L 397.13714599609375 117.57999420166016 L 402.6571350097656 117.43999481201172 L 402.6571350097656 137.7899932861328 L 405.30712890625 138.51998901367188 L 405.30712890625 140.14999389648438 Z" transform="matrix(1.2884397506713867, 0, 0, 1.2884397506713867, -217.0638885498047, -105.40311431884766)" style="fill: rgb(47, 20, 156); white-space: pre; color: rgb(51, 51, 51);"/><g transform="matrix(0.10458387166889242, 0, 0, 0.10458387166889242, 15.81647898056154, -7.912078522594605)"><g transform="matrix(1.8552718162536619, 0, 0, 1.8552718162536619, -1708.7017822265623, -619.5245361328125)"><g transform="matrix(1, 0, 0, 1, 0, 0)"><path d="M 1063.5999755859375 461 L 1091.5 489.5 L 1066.300048828125 515.2000122070312 L 1136.4000244140625 515.2000122070312 L 1136.4000244140625 461 Z" class="st16" style="fill: rgb(252, 174, 38);" transform="matrix(1, 0, 0, 1, 1.8189894035458565e-12, 4.547473508864641e-13)"/><path d="M 1136.4000244140625 461 L 1075.300048828125 539.9000244140625 L 1136.4000244140625 515.2000122070312 Z" class="st17" style="fill: rgb(203, 122, 31);" transform="matrix(1, 0, 0, 1, 1.8189894035458565e-12, 4.547473508864641e-13)"/><path d="M 1357.5999755859375 566.0999755859375 L 1286.4000244140625 566.0999755859375 L 1286.4000244140625 619.2000122070312 L 1361.4000244140625 619.2000122070312 L 1332.4000244140625 592.7000122070312 Z" class="st16" style="fill: rgb(252, 174, 38);" transform="matrix(1, 0, 0, 1, 1.8189894035458565e-12, 4.547473508864641e-13)"/><path d="M 1346.5999755859375 539.9000244140625 L 1286.4000244140625 619.2000122070312 L 1286.4000244140625 566.0999755859375 Z" class="st17" style="fill: rgb(203, 122, 31);" transform="matrix(1, 0, 0, 1, 1.8189894035458565e-12, 4.547473508864641e-13)"/><path d="M 1211 631.9000244140625 L 1075.300048828125 539.9000244140625 L 1211 448 L 1346.5999755859375 539.9000244140625 Z" class="st18" style="fill: rgb(255, 203, 31);" transform="matrix(1, 0, 0, 1, 1.8189894035458565e-12, 4.547473508864641e-13)"/></g></g></g></svg>